<svg width="24" height="24" viewBox="0 0 24 24" fill="none" xmlns="http://www.w3.org/2000/svg">
<g clip-path="url(#clip0_2_20)">
<rect width="24" height="24" fill="white"/>
<path d="M13.3741 16.6954C12.9117 17.1001 12.4431 17.4656 12 17.7861C11.5569 17.4656 11.0883 17.1001 10.6259 16.6954C8.59128 14.9152 7.66667 13.2678 7.66667 12V7.29832L12 5.67332L16.3333 7.29832V12C16.3333 13.2678 15.4087 14.9152 13.3741 16.6954ZM9.74948 19.2018L9.74775 19.2027C9.74625 19.2034 9.74681 19.2031 9.74948 19.2018Z" stroke="black" stroke-width="10" stroke-linecap="round" stroke-linejoin="round"/>
<path d="M16 7.99998H15.3333V6.66665C15.3333 4.82665 13.84 3.33331 12 3.33331C10.16 3.33331 8.66667 4.82665 8.66667 6.66665V7.99998H8C7.26667 7.99998 6.66667 8.59998 6.66667 9.33331V16C6.66667 16.7333 7.26667 17.3333 8 17.3333H16C16.7333 17.3333 17.3333 16.7333 17.3333 16V9.33331C17.3333 8.59998 16.7333 7.99998 16 7.99998ZM12 14C11.2667 14 10.6667 13.4 10.6667 12.6666C10.6667 11.9333 11.2667 11.3333 12 11.3333C12.7333 11.3333 13.3333 11.9333 13.3333 12.6666C13.3333 13.4 12.7333 14 12 14ZM14.0667 7.99998H9.93334V6.66665C9.93334 5.52665 10.86 4.59998 12 4.59998C13.14 4.59998 14.0667 5.52665 14.0667 6.66665V7.99998Z" fill="white"/>
</g>
<defs>
<clipPath id="clip0_2_20">
<rect width="24" height="24" fill="white"/>
</clipPath>
</defs>
</svg>
